<svg width="103" height="48" viewBox="0 0 103 48" fill="none" xmlns="http://www.w3.org/2000/svg">
<path fill-rule="evenodd" clip-rule="evenodd" d="M0.627843 9.6H26.0571C28.7081 9.6 30.8571 11.749 30.8571 14.4C30.8571 17.051 28.7081 19.2 26.0571 19.2H0V28.8H26.0571C28.7081 28.8 30.8571 30.949 30.8571 33.6C30.8571 36.251 28.7081 38.4 26.0571 38.4H0.627843C2.3754 43.964 7.57352 48 13.7143 48H34.2857C41.8599 48 48 41.8599 48 34.2857V32H96C99.7871 32 102.857 28.93 102.857 25.1429V22.8571C102.857 19.07 99.7871 16 96 16H48V13.7143C48 6.1401 41.8599 0 34.2857 0H13.7143C7.57352 0 2.3754 4.03597 0.627843 9.6Z" fill="#FF0100"/>
</svg>
